# Blender 3.3.0
# www.blender.org
o Cube
v -2.832495 2.288820 -0.041839
v -2.814259 0.319309 -0.718555
v -2.395896 0.000000 -2.880431
v -1.100000 1.100000 -1.100000
v -2.116527 2.288834 -2.880431
v -1.479497 0.319309 -0.718555
v -1.341049 1.341049 -0.041839
v -1.341050 0.000000 -1.341049
v -2.910625 0.000000 -0.858957
v 0.000000 1.341049 -1.341049
v -1.726466 0.319307 -0.041839
v 0.000000 0.000000 -2.997484
v -1.575864 0.000000 -0.858957
v -3.061228 0.319307 -0.041839
v 0.000000 1.846914 -0.041839
v -2.925052 2.288820 -0.041839
v -2.488453 0.000000 -2.880431
v -2.209083 2.288834 -2.880431
v -3.191309 0.000000 -0.041839
v 0.000000 0.173038 -1.781641
v -0.142287 0.000000 -1.793241
v -2.832495 2.288820 0.000000
v -1.818968 0.319307 -0.041839
v -3.061228 0.319307 0.000000
v -1.818968 0.319307 0.000000
v -2.925052 2.288820 0.000000
v -3.191309 0.000000 0.000000
v -1.393416 1.393416 -0.041839
v 0.000000 1.899280 -0.041839
v -1.393416 1.393416 0.000000
v 0.000000 1.899280 0.000000
v 2.832495 2.288820 -0.041839
v 2.814259 0.319309 -0.718555
v 2.395896 0.000000 -2.880431
v 1.100000 1.100000 -1.100000
v 2.116527 2.288834 -2.880431
v 1.479497 0.319309 -0.718555
v 1.341049 1.341049 -0.041839
v 1.341050 0.000000 -1.341049
v 2.910625 0.000000 -0.858957
v 1.726466 0.319307 -0.041839
v 1.575864 0.000000 -0.858957
v 3.061228 0.319307 -0.041839
v 2.925052 2.288820 -0.041839
v 2.488453 0.000000 -2.880431
v 2.209083 2.288834 -2.880431
v 3.191309 0.000000 -0.041839
v 0.142287 0.000000 -1.793241
v 2.832495 2.288820 0.000000
v 1.818968 0.319307 -0.041839
v 3.061228 0.319307 0.000000
v 1.818968 0.319307 0.000000
v 2.925052 2.288820 0.000000
v 3.191309 0.000000 0.000000
v 1.393416 1.393416 -0.041839
v 1.393416 1.393416 0.000000
v -2.832495 2.288820 0.041839
v -2.814259 0.319309 0.718555
v -2.395896 0.000000 2.880431
v -1.100000 1.100000 1.100000
v -2.116527 2.288834 2.880431
v -1.479497 0.319309 0.718555
v -1.341049 1.341049 0.041839
v -1.341050 0.000000 1.341049
v -2.910625 0.000000 0.858957
v 0.000000 1.341049 1.341049
v -1.726466 0.319307 0.041839
v 0.000000 0.000000 2.997484
v -1.575864 0.000000 0.858957
v -3.061228 0.319307 0.041839
v 0.000000 1.846914 0.041839
v -2.925052 2.288820 0.041839
v -2.488453 0.000000 2.880431
v -2.209083 2.288834 2.880431
v -3.191309 0.000000 0.041839
v 0.000000 0.173038 1.781641
v -0.142287 0.000000 1.793241
v -1.818968 0.319307 0.041839
v -1.393416 1.393416 0.041839
v 0.000000 1.899280 0.041839
v 2.832495 2.288820 0.041839
v 2.814259 0.319309 0.718555
v 2.395896 0.000000 2.880431
v 1.100000 1.100000 1.100000
v 2.116527 2.288834 2.880431
v 1.479497 0.319309 0.718555
v 1.341049 1.341049 0.041839
v 1.341050 0.000000 1.341049
v 2.910625 0.000000 0.858957
v 1.726466 0.319307 0.041839
v 1.575864 0.000000 0.858957
v 3.061228 0.319307 0.041839
v 2.925052 2.288820 0.041839
v 2.488453 0.000000 2.880431
v 2.209083 2.288834 2.880431
v 3.191309 0.000000 0.041839
v 0.142287 0.000000 1.793241
v 1.818968 0.319307 0.041839
v 1.393416 1.393416 0.041839
v -2.832495 -2.288820 -0.041839
v -2.814259 -0.319309 -0.718555
v -1.100000 -1.100000 -1.100000
v -2.116527 -2.288834 -2.880431
v -1.479497 -0.319309 -0.718555
v -1.341049 -1.341049 -0.041839
v 0.000000 -1.341049 -1.341049
v -1.726466 -0.319307 -0.041839
v -3.061228 -0.319307 -0.041839
v 0.000000 -1.846914 -0.041839
v -2.925052 -2.288820 -0.041839
v -2.209083 -2.288834 -2.880431
v 0.000000 -0.173038 -1.781641
v -2.832495 -2.288820 0.000000
v -1.818968 -0.319307 -0.041839
v -3.061228 -0.319307 0.000000
v -1.818968 -0.319307 0.000000
v -2.925052 -2.288820 0.000000
v -1.393416 -1.393416 -0.041839
v 0.000000 -1.899280 -0.041839
v -1.393416 -1.393416 0.000000
v 0.000000 -1.899280 0.000000
v 2.832495 -2.288820 -0.041839
v 2.814259 -0.319309 -0.718555
v 1.100000 -1.100000 -1.100000
v 2.116527 -2.288834 -2.880431
v 1.479497 -0.319309 -0.718555
v 1.341049 -1.341049 -0.041839
v 1.726466 -0.319307 -0.041839
v 3.061228 -0.319307 -0.041839
v 2.925052 -2.288820 -0.041839
v 2.209083 -2.288834 -2.880431
v 2.832495 -2.288820 0.000000
v 1.818968 -0.319307 -0.041839
v 3.061228 -0.319307 0.000000
v 1.818968 -0.319307 0.000000
v 2.925052 -2.288820 0.000000
v 1.393416 -1.393416 -0.041839
v 1.393416 -1.393416 0.000000
v -2.832495 -2.288820 0.041839
v -2.814259 -0.319309 0.718555
v -1.100000 -1.100000 1.100000
v -2.116527 -2.288834 2.880431
v -1.479497 -0.319309 0.718555
v -1.341049 -1.341049 0.041839
v 0.000000 -1.341049 1.341049
v -1.726466 -0.319307 0.041839
v -3.061228 -0.319307 0.041839
v 0.000000 -1.846914 0.041839
v -2.925052 -2.288820 0.041839
v -2.209083 -2.288834 2.880431
v 0.000000 -0.173038 1.781641
v -1.818968 -0.319307 0.041839
v -1.393416 -1.393416 0.041839
v 0.000000 -1.899280 0.041839
v 2.832495 -2.288820 0.041839
v 2.814259 -0.319309 0.718555
v 1.100000 -1.100000 1.100000
v 2.116527 -2.288834 2.880431
v 1.479497 -0.319309 0.718555
v 1.341049 -1.341049 0.041839
v 1.726466 -0.319307 0.041839
v 3.061228 -0.319307 0.041839
v 2.925052 -2.288820 0.041839
v 2.209083 -2.288834 2.880431
v 1.818968 -0.319307 0.041839
v 1.393416 -1.393416 0.041839
v -2.814259 0.319309 -0.718555
v -2.814259 0.319309 -0.718555
v -3.061228 0.319307 -0.041839
v -2.395896 0.000000 -2.880431
v -2.116527 2.288834 -2.880431
v -2.116527 2.288834 -2.880431
v -2.832495 2.288820 -0.041839
v -1.479497 0.319309 -0.718555
v -1.479497 0.319309 -0.718555
v -1.726466 0.319307 -0.041839
v -1.726466 0.319307 -0.041839
v -1.818968 0.319307 -0.041839
v -1.818968 0.319307 -0.041839
v -0.142287 0.000000 -1.793241
v -0.142287 0.000000 -1.793241
v 0.000000 0.000000 -2.997484
v 0.000000 0.000000 -2.997484
v 0.000000 0.000000 -2.997484
v 0.000000 0.173038 -1.781641
v 0.000000 0.173038 -1.781641
v -1.341049 1.341049 -0.041839
v -1.575864 0.000000 -0.858957
v -2.910625 0.000000 -0.858957
v 0.000000 1.846914 -0.041839
v -2.209083 2.288834 -2.880431
v -2.209083 2.288834 -2.880431
v -2.488453 0.000000 -2.880431
v -2.925052 2.288820 -0.041839
v -1.393416 1.393416 -0.041839
v -2.832495 2.288820 0.000000
v -3.061228 0.319307 0.000000
v -2.925052 2.288820 0.000000
v 0.000000 1.899280 -0.041839
v -1.818968 0.319307 0.000000
v 2.814259 0.319309 -0.718555
v 2.814259 0.319309 -0.718555
v 3.061228 0.319307 -0.041839
v 2.395896 0.000000 -2.880431
v 2.116527 2.288834 -2.880431
v 2.116527 2.288834 -2.880431
v 2.832495 2.288820 -0.041839
v 1.479497 0.319309 -0.718555
v 1.479497 0.319309 -0.718555
v 1.726466 0.319307 -0.041839
v 1.726466 0.319307 -0.041839
v 1.818968 0.319307 -0.041839
v 1.818968 0.319307 -0.041839
v 0.142287 0.000000 -1.793241
v 0.142287 0.000000 -1.793241
v 1.341049 1.341049 -0.041839
v 1.575864 0.000000 -0.858957
v 2.910625 0.000000 -0.858957
v 2.209083 2.288834 -2.880431
v 2.209083 2.288834 -2.880431
v 2.488453 0.000000 -2.880431
v 2.925052 2.288820 -0.041839
v 1.393416 1.393416 -0.041839
v 2.832495 2.288820 0.000000
v 3.061228 0.319307 0.000000
v 2.925052 2.288820 0.000000
v 1.818968 0.319307 0.000000
v -2.814259 0.319309 0.718555
v -2.814259 0.319309 0.718555
v -3.061228 0.319307 0.041839
v -2.395896 0.000000 2.880431
v -2.116527 2.288834 2.880431
v -2.116527 2.288834 2.880431
v -2.832495 2.288820 0.041839
v -1.479497 0.319309 0.718555
v -1.479497 0.319309 0.718555
v -1.726466 0.319307 0.041839
v -1.726466 0.319307 0.041839
v -1.818968 0.319307 0.041839
v -1.818968 0.319307 0.041839
v -0.142287 0.000000 1.793241
v -0.142287 0.000000 1.793241
v 0.000000 0.000000 2.997484
v 0.000000 0.000000 2.997484
v 0.000000 0.000000 2.997484
v 0.000000 0.173038 1.781641
v 0.000000 0.173038 1.781641
v -1.341049 1.341049 0.041839
v -1.575864 0.000000 0.858957
v -2.910625 0.000000 0.858957
v 0.000000 1.846914 0.041839
v -2.209083 2.288834 2.880431
v -2.209083 2.288834 2.880431
v -2.488453 0.000000 2.880431
v -2.925052 2.288820 0.041839
v -1.393416 1.393416 0.041839
v 0.000000 1.899280 0.041839
v 2.814259 0.319309 0.718555
v 2.814259 0.319309 0.718555
v 3.061228 0.319307 0.041839
v 2.395896 0.000000 2.880431
v 2.116527 2.288834 2.880431
v 2.116527 2.288834 2.880431
v 2.832495 2.288820 0.041839
v 1.479497 0.319309 0.718555
v 1.479497 0.319309 0.718555
v 1.726466 0.319307 0.041839
v 1.726466 0.319307 0.041839
v 1.818968 0.319307 0.041839
v 1.818968 0.319307 0.041839
v 0.142287 0.000000 1.793241
v 0.142287 0.000000 1.793241
v 1.341049 1.341049 0.041839
v 1.575864 0.000000 0.858957
v 2.910625 0.000000 0.858957
v 2.209083 2.288834 2.880431
v 2.209083 2.288834 2.880431
v 2.488453 0.000000 2.880431
v 2.925052 2.288820 0.041839
v 1.393416 1.393416 0.041839
v -2.814259 -0.319309 -0.718555
v -2.814259 -0.319309 -0.718555
v -3.061228 -0.319307 -0.041839
v -2.116527 -2.288834 -2.880431
v -2.116527 -2.288834 -2.880431
v -2.832495 -2.288820 -0.041839
v -1.479497 -0.319309 -0.718555
v -1.479497 -0.319309 -0.718555
v -1.726466 -0.319307 -0.041839
v -1.726466 -0.319307 -0.041839
v -1.818968 -0.319307 -0.041839
v -1.818968 -0.319307 -0.041839
v 0.000000 -0.173038 -1.781641
v 0.000000 -0.173038 -1.781641
v -1.341049 -1.341049 -0.041839
v 0.000000 -1.846914 -0.041839
v -2.209083 -2.288834 -2.880431
v -2.209083 -2.288834 -2.880431
v -2.925052 -2.288820 -0.041839
v -1.393416 -1.393416 -0.041839
v -2.832495 -2.288820 0.000000
v -3.061228 -0.319307 0.000000
v -2.925052 -2.288820 0.000000
v 0.000000 -1.899280 -0.041839
v -1.818968 -0.319307 0.000000
v 2.814259 -0.319309 -0.718555
v 2.814259 -0.319309 -0.718555
v 3.061228 -0.319307 -0.041839
v 2.116527 -2.288834 -2.880431
v 2.116527 -2.288834 -2.880431
v 2.832495 -2.288820 -0.041839
v 1.479497 -0.319309 -0.718555
v 1.479497 -0.319309 -0.718555
v 1.726466 -0.319307 -0.041839
v 1.726466 -0.319307 -0.041839
v 1.818968 -0.319307 -0.041839
v 1.818968 -0.319307 -0.041839
v 1.341049 -1.341049 -0.041839
v 2.209083 -2.288834 -2.880431
v 2.209083 -2.288834 -2.880431
v 2.925052 -2.288820 -0.041839
v 1.393416 -1.393416 -0.041839
v 2.832495 -2.288820 0.000000
v 3.061228 -0.319307 0.000000
v 2.925052 -2.288820 0.000000
v 1.818968 -0.319307 0.000000
v -2.814259 -0.319309 0.718555
v -2.814259 -0.319309 0.718555
v -3.061228 -0.319307 0.041839
v -2.116527 -2.288834 2.880431
v -2.116527 -2.288834 2.880431
v -2.832495 -2.288820 0.041839
v -1.479497 -0.319309 0.718555
v -1.479497 -0.319309 0.718555
v -1.726466 -0.319307 0.041839
v -1.726466 -0.319307 0.041839
v -1.818968 -0.319307 0.041839
v -1.818968 -0.319307 0.041839
v 0.000000 -0.173038 1.781641
v 0.000000 -0.173038 1.781641
v -1.341049 -1.341049 0.041839
v 0.000000 -1.846914 0.041839
v -2.209083 -2.288834 2.880431
v -2.209083 -2.288834 2.880431
v -2.925052 -2.288820 0.041839
v -1.393416 -1.393416 0.041839
v 0.000000 -1.899280 0.041839
v 2.814259 -0.319309 0.718555
v 2.814259 -0.319309 0.718555
v 3.061228 -0.319307 0.041839
v 2.116527 -2.288834 2.880431
v 2.116527 -2.288834 2.880431
v 2.832495 -2.288820 0.041839
v 1.479497 -0.319309 0.718555
v 1.479497 -0.319309 0.718555
v 1.726466 -0.319307 0.041839
v 1.726466 -0.319307 0.041839
v 1.818968 -0.319307 0.041839
v 1.818968 -0.319307 0.041839
v 1.341049 -1.341049 0.041839
v 2.209083 -2.288834 2.880431
v 2.209083 -2.288834 2.880431
v 2.925052 -2.288820 0.041839
v 1.393416 -1.393416 0.041839
vn -0.8859 0.3234 -0.3326
vn -0.6769 0.6647 -0.3162
vn -0.5808 0.5728 -0.5784
vn -0.0000 -0.0000 -1.0000
vn -0.0000 0.4025 -0.9154
vn -0.0000 1.0000 -0.0000
vn -0.0000 0.7036 -0.7106
vn -0.0000 0.3327 -0.9430
vn 0.9858 -0.0996 0.1352
vn 0.9787 -0.1137 0.1708
vn 0.9500 -0.1689 0.2627
vn -0.0000 0.9432 -0.3323
vn -0.6962 -0.0000 -0.7179
vn -0.8990 -0.0000 -0.4379
vn -0.9701 -0.0000 -0.2428
vn -0.9857 0.1159 -0.1222
vn -0.9629 0.1175 -0.2429
vn -0.3292 -0.0000 -0.9442
vn -0.7662 0.6361 -0.0905
vn 0.9933 -0.1154 -0.0000
vn -0.9928 -0.0000 -0.1200
vn -0.9933 0.1156 -0.0000
vn -0.9297 0.3683 -0.0000
vn -0.6968 0.7173 -0.0000
vn 0.8859 0.3234 -0.3326
vn 0.6769 0.6647 -0.3162
vn 0.8854 0.3340 -0.3231
vn 0.5808 0.5728 -0.5784
vn -0.9698 -0.0983 0.2234
vn -0.9776 -0.0000 0.2106
vn -0.9500 -0.1689 0.2627
vn 0.6962 -0.0000 -0.7179
vn 0.8990 -0.0000 -0.4379
vn 0.9701 -0.0000 -0.2428
vn 0.9857 0.1159 -0.1222
vn 0.9928 -0.0000 -0.1200
vn 0.3292 -0.0000 -0.9442
vn 0.7662 0.6361 -0.0905
vn -0.9933 -0.1154 -0.0000
vn -0.9858 -0.0996 0.1352
vn -0.9787 -0.1137 0.1708
vn 0.9933 0.1156 -0.0000
vn 0.6968 0.7173 -0.0000
vn 0.9297 0.3683 -0.0000
vn -0.8859 0.3234 0.3326
vn -0.6769 0.6647 0.3162
vn -0.8854 0.3340 0.3231
vn -0.0000 0.4025 0.9154
vn -0.0000 -0.0000 1.0000
vn -0.5808 0.5728 0.5784
vn -0.0000 0.3327 0.9430
vn -0.0000 0.7036 0.7106
vn 0.9698 -0.0983 -0.2234
vn 0.9776 -0.0000 -0.2106
vn 0.9500 -0.1689 -0.2627
vn -0.0000 0.9432 0.3323
vn -0.6962 -0.0000 0.7179
vn -0.8990 -0.0000 0.4379
vn -0.9701 -0.0000 0.2428
vn -0.9857 0.1159 0.1222
vn -0.9928 -0.0000 0.1200
vn -0.3292 -0.0000 0.9442
vn -0.7662 0.6361 0.0905
vn 0.9858 -0.0996 -0.1352
vn 0.9787 -0.1137 -0.1708
vn 0.8859 0.3234 0.3326
vn 0.6769 0.6647 0.3162
vn 0.5808 0.5728 0.5784
vn -0.9858 -0.0996 -0.1352
vn -0.9787 -0.1137 -0.1708
vn -0.9500 -0.1689 -0.2627
vn 0.6962 -0.0000 0.7179
vn 0.8990 -0.0000 0.4379
vn 0.9701 -0.0000 0.2428
vn 0.9857 0.1159 0.1222
vn 0.9629 0.1175 0.2429
vn 0.3292 -0.0000 0.9442
vn 0.7662 0.6361 0.0905
vn 0.9928 -0.0000 0.1200
vn -0.8859 -0.3234 -0.3326
vn -0.6769 -0.6647 -0.3162
vn -0.8854 -0.3340 -0.3231
vn -0.0000 -0.4025 -0.9154
vn -0.0000 -1.0000 -0.0000
vn -0.5808 -0.5728 -0.5784
vn -0.0000 -0.3327 -0.9430
vn -0.0000 -0.7036 -0.7106
vn 0.9698 0.0983 0.2234
vn 0.9776 -0.0000 0.2106
vn 0.9500 0.1689 0.2627
vn -0.0000 -0.9432 -0.3323
vn -0.9857 -0.1159 -0.1222
vn -0.7662 -0.6361 -0.0905
vn 0.9933 0.1154 -0.0000
vn 0.9858 0.0996 0.1352
vn 0.9787 0.1137 0.1708
vn -0.9933 -0.1156 -0.0000
vn -0.6968 -0.7173 -0.0000
vn -0.9297 -0.3683 -0.0000
vn 0.8859 -0.3234 -0.3326
vn 0.6769 -0.6647 -0.3162
vn 0.5808 -0.5728 -0.5784
vn -0.9858 0.0996 0.1352
vn -0.9787 0.1137 0.1708
vn -0.9500 0.1689 0.2627
vn 0.9857 -0.1159 -0.1222
vn 0.9629 -0.1175 -0.2429
vn 0.7662 -0.6361 -0.0905
vn -0.9933 0.1154 -0.0000
vn 0.9933 -0.1156 -0.0000
vn 0.9297 -0.3683 -0.0000
vn 0.6968 -0.7173 -0.0000
vn -0.8859 -0.3234 0.3326
vn -0.6769 -0.6647 0.3162
vn -0.5808 -0.5728 0.5784
vn -0.0000 -0.4025 0.9154
vn -0.0000 -0.7036 0.7106
vn -0.0000 -0.3327 0.9430
vn 0.9858 0.0996 -0.1352
vn 0.9787 0.1137 -0.1708
vn 0.9500 0.1689 -0.2627
vn -0.0000 -0.9432 0.3323
vn -0.9857 -0.1159 0.1222
vn -0.9629 -0.1175 0.2429
vn -0.7662 -0.6361 0.0905
vn 0.8859 -0.3234 0.3326
vn 0.6769 -0.6647 0.3162
vn 0.8854 -0.3340 0.3231
vn 0.5808 -0.5728 0.5784
vn -0.9698 0.0983 -0.2234
vn -0.9776 -0.0000 -0.2106
vn -0.9500 0.1689 -0.2627
vn 0.9857 -0.1159 0.1222
vn 0.7662 -0.6361 0.0905
vn -0.9858 0.0996 -0.1352
vn -0.9787 0.1137 -0.1708
vn -0.8854 0.3340 -0.3231
vn 0.9691 -0.0000 0.2468
vn 0.9698 -0.0983 0.2234
vn -1.0000 -0.0000 -0.0000
vn -0.9691 -0.0000 0.2468
vn 0.9629 0.1175 -0.2429
vn 1.0000 -0.0000 -0.0000
vn 0.9691 -0.0000 -0.2468
vn -0.9629 0.1175 0.2429
vn 0.8854 0.3340 0.3231
vn -0.9691 -0.0000 -0.2468
vn -0.9698 -0.0983 -0.2234
vn -0.9629 -0.1175 -0.2429
vn 0.8854 -0.3340 -0.3231
vn -0.9698 0.0983 0.2234
vn -0.8854 -0.3340 0.3231
vn 0.9698 0.0983 -0.2234
vn 0.9629 -0.1175 0.2429
s 1
f 174//1 187//2 4//3
s 2
f 188//4 168//5 175//5
s 3
f 167//6 169//6 178//6
s 1
f 4//3 10//7 186//8
s 4
f 1//9 14//10 2//11
s 1
f 4//3 190//12 10//7
f 174//1 8//13 13//14
s 5
f 3//4 192//4 171//4
s 6
f 18//6 173//6 172//6
s 7
f 193//15 194//16 191//17
s 1
f 4//3 186//8 181//18
s 8
f 180//19 185//19 182//19
s 1
f 8//13 4//3 181//18
s 4
f 1//9 197//20 14//10
s 6
f 16//6 22//6 173//6
s 9
f 7//4 199//4 15//4
f 11//4 28//4 7//4
s 7
f 19//21 26//22 194//16
s 10
f 179//23 30//24 195//24
f 195//24 31//6 29//6
s 3
f 178//6 24//6 200//6
s 1
f 208//25 216//26 210//27
s 11
f 202//5 217//4 209//5
s 12
f 212//6 201//6 37//6
s 1
f 35//28 186//8 10//7
s 13
f 205//29 204//30 33//31
s 1
f 190//12 35//28 10//7
f 39//32 208//25 42//33
s 14
f 34//4 219//4 45//4
s 15
f 207//6 220//6 206//6
s 16
f 221//34 44//35 47//36
s 1
f 35//28 215//37 186//8
s 17
f 214//38 183//38 20//38
s 1
f 39//32 215//37 35//28
s 13
f 225//39 32//40 43//41
s 15
f 49//6 222//6 207//6
s 9
f 199//4 38//4 15//4
f 55//4 41//4 38//4
s 16
f 53//42 47//36 44//35
s 10
f 56//43 213//44 223//43
f 31//6 223//43 29//6
s 12
f 51//6 212//6 227//6
s 18
f 235//45 248//46 237//47
s 19
f 229//48 249//49 236//48
s 3
f 239//6 228//6 62//6
s 18
f 60//50 247//51 66//52
s 4
f 232//53 231//54 58//55
s 18
f 251//56 60//50 66//52
f 64//57 235//45 69//58
s 20
f 59//49 252//49 73//49
s 6
f 234//6 253//6 233//6
s 7
f 254//59 72//60 75//61
s 18
f 60//50 242//62 247//51
s 21
f 241//63 243//63 246//63
s 18
f 64//57 242//62 60//50
s 4
f 197//20 57//64 70//65
s 6
f 22//6 255//6 234//6
s 22
f 257//49 63//49 71//49
f 79//49 67//49 63//49
s 7
f 26//22 75//61 72//60
s 10
f 30//24 240//23 256//24
f 31//6 256//24 80//6
s 3
f 24//6 239//6 200//6
s 18
f 265//66 273//67 84//68
s 23
f 274//49 259//48 266//48
s 12
f 258//6 260//6 269//6
s 18
f 84//68 66//52 247//51
s 13
f 81//69 92//70 82//71
s 18
f 84//68 251//56 66//52
f 265//66 88//72 91//73
s 24
f 83//49 277//49 262//49
s 15
f 95//6 264//6 263//6
s 16
f 278//74 279//75 276//76
s 18
f 84//68 247//51 272//77
s 25
f 271//78 76//78 244//78
s 18
f 88//72 84//68 272//77
s 13
f 81//69 225//39 92//70
s 15
f 93//6 49//6 264//6
s 22
f 87//49 257//49 71//49
f 90//49 99//49 87//49
s 16
f 96//79 53//42 279//75
s 10
f 270//44 56//43 280//43
f 280//43 31//6 80//6
s 12
f 269//6 51//6 227//6
s 1
f 287//80 295//81 289//82
s 2
f 282//83 188//4 288//83
s 26
f 291//84 281//84 104//84
s 1
f 102//85 294//86 106//87
s 4
f 284//88 170//89 101//90
s 1
f 296//91 102//85 106//87
f 8//13 287//80 13//14
s 5
f 3//4 297//4 17//4
s 27
f 286//84 298//84 285//84
s 7
f 193//15 110//92 19//21
s 1
f 102//85 181//18 294//86
s 28
f 21//93 184//93 293//93
s 1
f 8//13 181//18 102//85
s 4
f 302//94 100//95 108//96
s 27
f 113//84 299//84 286//84
s 29
f 304//4 105//4 109//4
f 118//4 107//4 105//4
s 7
f 117//97 19//21 110//92
s 30
f 120//98 292//99 300//98
f 121//84 300//98 119//84
s 26
f 115//84 291//84 305//84
s 1
f 312//100 318//101 124//102
s 11
f 217//4 307//83 313//83
s 31
f 306//84 308//84 316//84
s 1
f 124//102 106//87 294//86
s 13
f 122//103 129//104 123//105
s 1
f 124//102 296//91 106//87
f 312//100 39//32 42//33
s 14
f 34//4 320//4 309//4
s 32
f 131//84 311//84 310//84
s 16
f 221//34 321//106 319//107
s 1
f 124//102 294//86 215//37
s 33
f 48//108 112//108 12//108
s 1
f 39//32 124//102 215//37
s 13
f 122//103 324//109 129//104
s 32
f 130//84 132//84 311//84
s 29
f 127//4 304//4 109//4
f 128//4 137//4 127//4
s 16
f 47//36 136//110 321//106
s 30
f 317//111 138//112 322//112
f 322//112 121//84 119//84
s 31
f 316//84 134//84 326//84
s 18
f 333//113 341//114 141//115
s 19
f 249//49 328//116 334//116
s 26
f 327//84 329//84 337//84
s 18
f 141//115 145//117 340//118
s 4
f 139//119 147//120 140//121
s 18
f 141//115 342//122 145//117
f 333//113 64//57 69//58
s 20
f 59//49 344//49 330//49
s 27
f 150//84 332//84 331//84
s 7
f 254//59 345//123 343//124
s 18
f 141//115 340//118 242//62
s 34
f 77//125 339//125 245//125
s 18
f 64//57 141//115 242//62
s 4
f 139//119 302//94 147//120
s 27
f 149//84 113//84 332//84
s 35
f 144//49 347//49 148//49
f 146//49 153//49 144//49
s 7
f 75//61 117//97 345//123
s 30
f 338//99 120//98 346//98
f 346//98 121//84 154//84
s 26
f 337//84 115//84 305//84
s 18
f 354//126 360//127 356//128
s 23
f 349//116 274//49 355//116
s 31
f 358//84 348//84 159//84
s 18
f 157//129 340//118 145//117
s 13
f 351//130 261//131 156//132
s 18
f 342//122 157//129 145//117
f 88//72 354//126 91//73
s 24
f 83//49 361//49 94//49
s 32
f 353//84 362//84 352//84
s 16
f 278//74 163//133 96//79
s 18
f 157//129 272//77 340//118
s 36
f 97//134 68//134 151//134
s 18
f 88//72 272//77 157//129
s 13
f 324//109 155//135 162//136
s 32
f 132//84 363//84 353//84
s 35
f 347//49 160//49 148//49
f 166//49 161//49 160//49
s 16
f 136//110 96//79 163//133
s 30
f 138//112 359//111 364//112
f 121//84 364//112 154//84
s 31
f 134//84 358//84 326//84
s 1
f 174//1 176//137 187//2
s 2
f 188//4 9//4 168//5
s 3
f 178//6 177//6 6//6
f 6//6 167//6 178//6
s 4
f 2//11 189//138 170//89
f 170//89 5//139 2//11
f 5//139 1//9 2//11
s 1
f 4//3 187//2 190//12
f 174//1 4//3 8//13
s 5
f 3//4 17//4 192//4
s 6
f 18//6 16//6 173//6
s 7
f 193//15 19//21 194//16
s 4
f 1//9 196//20 197//20
s 6
f 16//6 198//6 22//6
s 9
f 7//4 28//4 199//4
f 11//4 23//4 28//4
s 7
f 19//21 27//140 26//22
s 10
f 179//23 25//23 30//24
f 195//24 30//24 31//6
s 3
f 178//6 169//6 24//6
s 1
f 208//25 35//28 216//26
s 11
f 202//5 40//4 217//4
s 12
f 37//6 211//6 212//6
f 212//6 203//6 201//6
s 13
f 204//30 218//141 33//31
f 33//31 43//41 32//40
f 32//40 205//29 33//31
s 1
f 190//12 216//26 35//28
f 39//32 35//28 208//25
s 14
f 34//4 36//4 219//4
s 15
f 207//6 222//6 220//6
s 16
f 221//34 46//142 44//35
s 13
f 225//39 224//39 32//40
s 15
f 49//6 226//6 222//6
s 9
f 199//4 55//4 38//4
f 55//4 50//4 41//4
s 16
f 53//42 54//143 47//36
s 10
f 56//43 52//44 213//44
f 31//6 56//43 223//43
s 12
f 51//6 203//6 212//6
s 18
f 235//45 60//50 248//46
s 19
f 229//48 65//49 249//49
s 3
f 62//6 238//6 239//6
f 239//6 230//6 228//6
s 4
f 231//54 250//144 58//55
f 58//55 70//65 57//64
f 57//64 232//53 58//55
s 18
f 251//56 248//46 60//50
f 64//57 60//50 235//45
s 20
f 59//49 61//49 252//49
s 6
f 234//6 255//6 253//6
s 7
f 254//59 74//145 72//60
s 4
f 197//20 196//20 57//64
s 6
f 22//6 198//6 255//6
s 22
f 257//49 79//49 63//49
f 79//49 78//49 67//49
s 7
f 26//22 27//140 75//61
s 10
f 30//24 25//23 240//23
f 31//6 30//24 256//24
s 3
f 24//6 230//6 239//6
s 18
f 265//66 267//146 273//67
s 23
f 274//49 89//49 259//48
s 12
f 269//6 268//6 86//6
f 86//6 258//6 269//6
s 13
f 82//71 275//147 261//131
f 261//131 85//148 82//71
f 85//148 81//69 82//71
s 18
f 84//68 273//67 251//56
f 265//66 84//68 88//72
s 24
f 83//49 94//49 277//49
s 15
f 95//6 93//6 264//6
s 16
f 278//74 96//79 279//75
s 13
f 81//69 224//39 225//39
s 15
f 93//6 226//6 49//6
s 22
f 87//49 99//49 257//49
f 90//49 98//49 99//49
s 16
f 96//79 54//143 53//42
s 10
f 270//44 52//44 56//43
f 280//43 56//43 31//6
s 12
f 269//6 260//6 51//6
s 1
f 287//80 102//85 295//81
s 2
f 282//83 9//4 188//4
s 26
f 104//84 290//84 291//84
f 291//84 283//84 281//84
s 4
f 170//89 189//138 101//90
f 101//90 108//96 100//95
f 100//95 284//88 101//90
s 1
f 296//91 295//81 102//85
f 8//13 102//85 287//80
s 5
f 3//4 103//4 297//4
s 27
f 286//84 299//84 298//84
s 7
f 193//15 111//149 110//92
s 4
f 302//94 301//94 100//95
s 27
f 113//84 303//84 299//84
s 29
f 304//4 118//4 105//4
f 118//4 114//4 107//4
s 7
f 117//97 27//140 19//21
s 30
f 120//98 116//99 292//99
f 121//84 120//98 300//98
s 26
f 115//84 283//84 291//84
s 1
f 312//100 314//150 318//101
s 11
f 217//4 40//4 307//83
s 31
f 316//84 315//84 126//84
f 126//84 306//84 316//84
s 13
f 123//105 218//141 204//30
f 204//30 125//151 123//105
f 125//151 122//103 123//105
s 1
f 124//102 318//101 296//91
f 312//100 124//102 39//32
s 14
f 34//4 45//4 320//4
s 32
f 131//84 130//84 311//84
s 16
f 221//34 47//36 321//106
s 13
f 122//103 323//109 324//109
s 32
f 130//84 325//84 132//84
s 29
f 127//4 137//4 304//4
f 128//4 133//4 137//4
s 16
f 47//36 54//143 136//110
s 30
f 317//111 135//111 138//112
f 322//112 138//112 121//84
s 31
f 316//84 308//84 134//84
s 18
f 333//113 335//152 341//114
s 19
f 249//49 65//49 328//116
s 26
f 337//84 336//84 143//84
f 143//84 327//84 337//84
s 4
f 140//121 250//144 231//54
f 231//54 142//153 140//121
f 142//153 139//119 140//121
s 18
f 141//115 341//114 342//122
f 333//113 141//115 64//57
s 20
f 59//49 73//49 344//49
s 27
f 150//84 149//84 332//84
s 7
f 254//59 75//61 345//123
s 4
f 139//119 301//94 302//94
s 27
f 149//84 303//84 113//84
s 35
f 144//49 153//49 347//49
f 146//49 152//49 153//49
s 7
f 75//61 27//140 117//97
s 30
f 338//99 116//99 120//98
f 346//98 120//98 121//84
s 26
f 337//84 329//84 115//84
s 18
f 354//126 157//129 360//127
s 23
f 349//116 89//49 274//49
s 31
f 159//84 357//84 358//84
f 358//84 350//84 348//84
s 13
f 261//131 275//147 156//132
f 156//132 162//136 155//135
f 155//135 351//130 156//132
s 18
f 342//122 360//127 157//129
f 88//72 157//129 354//126
s 24
f 83//49 158//49 361//49
s 32
f 353//84 363//84 362//84
s 16
f 278//74 164//154 163//133
s 13
f 324//109 323//109 155//135
s 32
f 132//84 325//84 363//84
s 35
f 347//49 166//49 160//49
f 166//49 165//49 161//49
s 16
f 136//110 54//143 96//79
s 30
f 138//112 135//111 359//111
f 121//84 138//112 364//112
s 31
f 134//84 350//84 358//84
