# Blender v3.3.0 OBJ File: 'starship.blend'
# www.blender.org
v -2.832495 2.288820 -0.041839
v -2.814259 0.319309 -0.718555
v -2.395896 0.000000 -2.880431
v -1.100000 1.100000 -1.100000
v -2.116527 2.288834 -2.880431
v -1.479497 0.319309 -0.718555
v -1.341049 1.341049 -0.041839
v -1.341050 0.000000 -1.341049
v -2.910625 0.000000 -0.858957
v 0.000000 1.341049 -1.341049
v -1.726466 0.319307 -0.041839
v 0.000000 0.000000 -2.997484
v -1.575864 0.000000 -0.858957
v -3.061228 0.319307 -0.041839
v 0.000000 1.846914 -0.041839
v -2.925052 2.288820 -0.041839
v -2.488453 0.000000 -2.880431
v -2.209083 2.288834 -2.880431
v -3.191309 0.000000 -0.041839
v 0.000000 0.173038 -1.781641
v -0.142287 0.000000 -1.793241
v -2.832495 2.288820 0.000000
v -1.818968 0.319307 -0.041839
v -3.061228 0.319307 0.000000
v -1.818968 0.319307 0.000000
v -2.925052 2.288820 0.000000
v -3.191309 0.000000 0.000000
v -1.393416 1.393416 -0.041839
v 0.000000 1.899280 -0.041839
v -1.393416 1.393416 0.000000
v 0.000000 1.899280 0.000000
v 2.832495 2.288820 -0.041839
v 2.814259 0.319309 -0.718555
v 2.395896 0.000000 -2.880431
v 1.100000 1.100000 -1.100000
v 2.116527 2.288834 -2.880431
v 1.479497 0.319309 -0.718555
v 1.341049 1.341049 -0.041839
v 1.341050 0.000000 -1.341049
v 2.910625 0.000000 -0.858957
v 1.726466 0.319307 -0.041839
v 1.575864 0.000000 -0.858957
v 3.061228 0.319307 -0.041839
v 2.925052 2.288820 -0.041839
v 2.488453 0.000000 -2.880431
v 2.209083 2.288834 -2.880431
v 3.191309 0.000000 -0.041839
v 0.142287 0.000000 -1.793241
v 2.832495 2.288820 0.000000
v 1.818968 0.319307 -0.041839
v 3.061228 0.319307 0.000000
v 1.818968 0.319307 0.000000
v 2.925052 2.288820 0.000000
v 3.191309 0.000000 0.000000
v 1.393416 1.393416 -0.041839
v 1.393416 1.393416 0.000000
v -2.832495 2.288820 0.041839
v -2.814259 0.319309 0.718555
v -2.395896 0.000000 2.880431
v -1.100000 1.100000 1.100000
v -2.116527 2.288834 2.880431
v -1.479497 0.319309 0.718555
v -1.341049 1.341049 0.041839
v -1.341050 0.000000 1.341049
v -2.910625 0.000000 0.858957
v 0.000000 1.341049 1.341049
v -1.726466 0.319307 0.041839
v 0.000000 0.000000 2.997484
v -1.575864 0.000000 0.858957
v -3.061228 0.319307 0.041839
v 0.000000 1.846914 0.041839
v -2.925052 2.288820 0.041839
v -2.488453 0.000000 2.880431
v -2.209083 2.288834 2.880431
v -3.191309 0.000000 0.041839
v 0.000000 0.173038 1.781641
v -0.142287 0.000000 1.793241
v -1.818968 0.319307 0.041839
v -1.393416 1.393416 0.041839
v 0.000000 1.899280 0.041839
v 2.832495 2.288820 0.041839
v 2.814259 0.319309 0.718555
v 2.395896 0.000000 2.880431
v 1.100000 1.100000 1.100000
v 2.116527 2.288834 2.880431
v 1.479497 0.319309 0.718555
v 1.341049 1.341049 0.041839
v 1.341050 0.000000 1.341049
v 2.910625 0.000000 0.858957
v 1.726466 0.319307 0.041839
v 1.575864 0.000000 0.858957
v 3.061228 0.319307 0.041839
v 2.925052 2.288820 0.041839
v 2.488453 0.000000 2.880431
v 2.209083 2.288834 2.880431
v 3.191309 0.000000 0.041839
v 0.142287 0.000000 1.793241
v 1.818968 0.319307 0.041839
v 1.393416 1.393416 0.041839
v -2.832495 -2.288820 -0.041839
v -2.814259 -0.319309 -0.718555
v -1.100000 -1.100000 -1.100000
v -2.116527 -2.288834 -2.880431
v -1.479497 -0.319309 -0.718555
v -1.341049 -1.341049 -0.041839
v 0.000000 -1.341049 -1.341049
v -1.726466 -0.319307 -0.041839
v -3.061228 -0.319307 -0.041839
v 0.000000 -1.846914 -0.041839
v -2.925052 -2.288820 -0.041839
v -2.209083 -2.288834 -2.880431
v 0.000000 -0.173038 -1.781641
v -2.832495 -2.288820 0.000000
v -1.818968 -0.319307 -0.041839
v -3.061228 -0.319307 0.000000
v -1.818968 -0.319307 0.000000
v -2.925052 -2.288820 0.000000
v -1.393416 -1.393416 -0.041839
v 0.000000 -1.899280 -0.041839
v -1.393416 -1.393416 0.000000
v 0.000000 -1.899280 0.000000
v 2.832495 -2.288820 -0.041839
v 2.814259 -0.319309 -0.718555
v 1.100000 -1.100000 -1.100000
v 2.116527 -2.288834 -2.880431
v 1.479497 -0.319309 -0.718555
v 1.341049 -1.341049 -0.041839
v 1.726466 -0.319307 -0.041839
v 3.061228 -0.319307 -0.041839
v 2.925052 -2.288820 -0.041839
v 2.209083 -2.288834 -2.880431
v 2.832495 -2.288820 0.000000
v 1.818968 -0.319307 -0.041839
v 3.061228 -0.319307 0.000000
v 1.818968 -0.319307 0.000000
v 2.925052 -2.288820 0.000000
v 1.393416 -1.393416 -0.041839
v 1.393416 -1.393416 0.000000
v -2.832495 -2.288820 0.041839
v -2.814259 -0.319309 0.718555
v -1.100000 -1.100000 1.100000
v -2.116527 -2.288834 2.880431
v -1.479497 -0.319309 0.718555
v -1.341049 -1.341049 0.041839
v 0.000000 -1.341049 1.341049
v -1.726466 -0.319307 0.041839
v -3.061228 -0.319307 0.041839
v 0.000000 -1.846914 0.041839
v -2.925052 -2.288820 0.041839
v -2.209083 -2.288834 2.880431
v 0.000000 -0.173038 1.781641
v -1.818968 -0.319307 0.041839
v -1.393416 -1.393416 0.041839
v 0.000000 -1.899280 0.041839
v 2.832495 -2.288820 0.041839
v 2.814259 -0.319309 0.718555
v 1.100000 -1.100000 1.100000
v 2.116527 -2.288834 2.880431
v 1.479497 -0.319309 0.718555
v 1.341049 -1.341049 0.041839
v 1.726466 -0.319307 0.041839
v 3.061228 -0.319307 0.041839
v 2.925052 -2.288820 0.041839
v 2.209083 -2.288834 2.880431
v 1.818968 -0.319307 0.041839
v 1.393416 -1.393416 0.041839
vt 0.532906 0.195120
vt 0.625000 0.125000
vt 0.625000 0.250000
vt 0.500000 0.191977
vt 0.532906 0.195120
vt 0.529763 0.125000
vt 0.529763 0.125000
vt 0.625000 0.375000
vt 0.516129 0.375000
vt 0.000000 0.000000
vt 0.000000 0.000000
vt 0.000000 0.000000
vt 0.875000 0.500000
vt 0.750000 0.625000
vt 0.750000 0.500000
vt 0.500000 0.250000
vt 0.000000 0.000000
vt 0.000000 0.000000
vt 0.000000 0.000000
vt 0.000000 0.000000
vt 0.000000 0.000000
vt 0.500000 0.361737
vt 0.500000 0.375000
vt 0.000000 0.000000
vt 0.000000 0.000000
vt 0.875000 0.625000
vt 0.750000 0.625000
vt 0.529763 0.125000
vt 0.625000 0.125000
vt 0.000000 0.000000
vt 0.000000 0.000000
vt 0.625000 0.125000
vt 0.875000 0.625000
vt 0.750000 0.625000
vt 0.529763 0.125000
vt 0.529763 0.125000
vt 0.532906 0.195120
vt 0.625000 0.125000
vt 0.529763 0.125000
vt 0.532906 0.195120
vt 0.500000 0.191977
vt 0.529763 0.125000
vt 0.625000 0.250000
vt 0.000000 0.000000
vt 0.000000 0.000000
vt 0.000000 0.000000
vt 0.875000 0.500000
vt 0.500000 0.250000
vt 0.000000 0.000000
vt 0.000000 0.000000
vt 0.000000 0.000000
vt 0.000000 0.000000
vt 0.000000 0.000000
vt 0.500000 0.361737
vt 0.000000 0.000000
vt 0.000000 0.000000
vt 0.000000 0.000000
vt 0.875000 0.625000
vt 0.625000 0.125000
vt 0.000000 0.000000
vt 0.625000 0.125000
vt 0.875000 0.625000
vt 0.529763 0.125000
vt 0.529763 0.125000
vt 0.532906 0.195120
vt 0.625000 0.125000
vt 0.529763 0.125000
vt 0.532906 0.195120
vt 0.500000 0.191977
vt 0.529763 0.125000
vt 0.625000 0.250000
vt 0.516129 0.375000
vt 0.625000 0.375000
vt 0.000000 0.000000
vt 0.000000 0.000000
vt 0.000000 0.000000
vt 0.750000 0.625000
vt 0.875000 0.500000
vt 0.750000 0.500000
vt 0.500000 0.250000
vt 0.000000 0.000000
vt 0.000000 0.000000
vt 0.000000 0.000000
vt 0.000000 0.000000
vt 0.000000 0.000000
vt 0.500000 0.361737
vt 0.500000 0.375000
vt 0.000000 0.000000
vt 0.750000 0.625000
vt 0.875000 0.625000
vt 0.625000 0.125000
vt 0.875000 0.625000
vt 0.532906 0.195120
vt 0.625000 0.125000
vt 0.625000 0.250000
vt 0.500000 0.191977
vt 0.532906 0.195120
vt 0.529763 0.125000
vt 0.529763 0.125000
vt 0.000000 0.000000
vt 0.000000 0.000000
vt 0.000000 0.000000
vt 0.875000 0.500000
vt 0.500000 0.250000
vt 0.000000 0.000000
vt 0.000000 0.000000
vt 0.000000 0.000000
vt 0.000000 0.000000
vt 0.000000 0.000000
vt 0.500000 0.361737
vt 0.875000 0.625000
vt 0.529763 0.125000
vt 0.625000 0.125000
vt 0.000000 0.000000
vt 0.875000 0.625000
vt 0.532906 0.195120
vt 0.625000 0.125000
vt 0.529763 0.125000
vt 0.532906 0.195120
vt 0.529763 0.125000
vt 0.625000 0.250000
vt 0.516129 0.375000
vt 0.625000 0.375000
vt 0.000000 0.000000
vt 0.000000 0.000000
vt 0.750000 0.625000
vt 0.875000 0.500000
vt 0.750000 0.500000
vt 0.000000 0.000000
vt 0.000000 0.000000
vt 0.000000 0.000000
vt 0.000000 0.000000
vt 0.000000 0.000000
vt 0.000000 0.000000
vt 0.750000 0.625000
vt 0.875000 0.625000
vt 0.625000 0.125000
vt 0.000000 0.000000
vt 0.625000 0.125000
vt 0.750000 0.625000
vt 0.875000 0.625000
vt 0.529763 0.125000
vt 0.529763 0.125000
vt 0.532906 0.195120
vt 0.625000 0.125000
vt 0.625000 0.250000
vt 0.532906 0.195120
vt 0.529763 0.125000
vt 0.529763 0.125000
vt 0.000000 0.000000
vt 0.000000 0.000000
vt 0.000000 0.000000
vt 0.875000 0.500000
vt 0.000000 0.000000
vt 0.000000 0.000000
vt 0.000000 0.000000
vt 0.000000 0.000000
vt 0.000000 0.000000
vt 0.875000 0.625000
vt 0.529763 0.125000
vt 0.625000 0.125000
vt 0.000000 0.000000
vt 0.625000 0.125000
vt 0.875000 0.625000
vt 0.529763 0.125000
vt 0.529763 0.125000
vt 0.532906 0.195120
vt 0.625000 0.125000
vt 0.625000 0.250000
vt 0.532906 0.195120
vt 0.529763 0.125000
vt 0.529763 0.125000
vt 0.625000 0.375000
vt 0.516129 0.375000
vt 0.000000 0.000000
vt 0.000000 0.000000
vt 0.000000 0.000000
vt 0.875000 0.500000
vt 0.750000 0.625000
vt 0.750000 0.500000
vt 0.000000 0.000000
vt 0.000000 0.000000
vt 0.000000 0.000000
vt 0.875000 0.625000
vt 0.750000 0.625000
vt 0.529763 0.125000
vt 0.625000 0.125000
vt 0.875000 0.625000
vt 0.532906 0.195120
vt 0.625000 0.125000
vt 0.529763 0.125000
vt 0.532906 0.195120
vt 0.529763 0.125000
vt 0.625000 0.250000
vt 0.000000 0.000000
vt 0.000000 0.000000
vt 0.875000 0.500000
vt 0.000000 0.000000
vt 0.000000 0.000000
vt 0.000000 0.000000
vt 0.000000 0.000000
vt 0.875000 0.625000
vt 0.625000 0.125000
vt 0.875000 0.625000
vt 0.500000 0.191977
vt 0.000000 0.000000
vt 0.000000 0.000000
vt 0.875000 0.625000
vt 0.500000 0.191977
vt 0.529763 0.125000
vt 0.000000 0.000000
vt 0.000000 0.000000
vt 0.875000 0.625000
vt 0.500000 0.191977
vt 0.529763 0.125000
vt 0.000000 0.000000
vt 0.500000 0.191977
vt 0.000000 0.000000
vt 0.529763 0.125000
vt 0.875000 0.625000
vt 0.875000 0.625000
vt 0.529763 0.125000
vn -0.9104 0.3070 -0.2773
vn 0.0000 0.4025 -0.9154
vn 0.0000 1.0000 0.0000
vn -0.2717 0.3397 -0.9004
vn 0.9339 -0.1085 0.3408
vn -0.2729 0.8965 -0.3491
vn -0.8156 0.4208 -0.3972
vn 0.0000 0.0000 -1.0000
vn -0.9629 0.1175 -0.2429
vn -0.3004 0.3075 -0.9029
vn -0.7662 0.6361 -0.0905
vn -0.3397 0.2717 -0.9004
vn 0.9933 -0.1154 0.0000
vn -0.9933 0.1156 0.0000
vn -0.9297 0.3683 0.0000
vn -0.3412 0.9400 0.0000
vn 0.8854 0.3340 -0.3231
vn 0.2717 0.3397 -0.9004
vn -0.9714 -0.1186 0.2055
vn 0.2729 0.8965 -0.3491
vn 0.8156 0.4208 -0.3972
vn 0.9646 0.1122 -0.2388
vn 0.3004 0.3075 -0.9029
vn 0.7662 0.6361 -0.0905
vn 0.3397 0.2717 -0.9004
vn -0.9933 -0.1154 0.0000
vn 0.9933 0.1156 0.0000
vn 0.9297 0.3683 0.0000
vn 0.3412 0.9400 0.0000
vn -0.8854 0.3340 0.3231
vn 0.0000 0.4025 0.9154
vn -0.2717 0.3397 0.9004
vn 0.9714 -0.1186 -0.2055
vn -0.2729 0.8965 0.3491
vn -0.8156 0.4208 0.3972
vn 0.0000 0.0000 1.0000
vn -0.9646 0.1122 0.2388
vn -0.3004 0.3075 0.9029
vn -0.7662 0.6361 0.0905
vn -0.3397 0.2717 0.9004
vn 0.9104 0.3070 0.2773
vn 0.2717 0.3397 0.9004
vn -0.9339 -0.1085 -0.3408
vn 0.2729 0.8965 0.3491
vn 0.8156 0.4208 0.3972
vn 0.9629 0.1175 0.2429
vn 0.3004 0.3075 0.9029
vn 0.7662 0.6361 0.0905
vn 0.3397 0.2717 0.9004
vn -0.8854 -0.3340 -0.3231
vn 0.0000 -0.4025 -0.9154
vn 0.0000 -1.0000 0.0000
vn -0.2717 -0.3397 -0.9004
vn 0.9714 0.1186 0.2055
vn -0.2729 -0.8965 -0.3491
vn -0.8156 -0.4208 -0.3972
vn -0.9646 -0.1122 -0.2388
vn -0.3004 -0.3075 -0.9029
vn -0.7662 -0.6361 -0.0905
vn -0.3397 -0.2717 -0.9004
vn 0.9933 0.1154 0.0000
vn -0.9933 -0.1156 0.0000
vn -0.9297 -0.3683 0.0000
vn -0.3412 -0.9400 0.0000
vn 0.9104 -0.3070 -0.2773
vn 0.2717 -0.3397 -0.9004
vn -0.9339 0.1085 0.3408
vn 0.2729 -0.8965 -0.3491
vn 0.8156 -0.4208 -0.3972
vn 0.9629 -0.1175 -0.2429
vn 0.3004 -0.3075 -0.9029
vn 0.7662 -0.6361 -0.0905
vn 0.3397 -0.2717 -0.9004
vn -0.9933 0.1154 0.0000
vn 0.9933 -0.1156 0.0000
vn 0.9297 -0.3683 0.0000
vn 0.3412 -0.9400 0.0000
vn -0.9104 -0.3070 0.2773
vn 0.0000 -0.4025 0.9154
vn -0.2717 -0.3397 0.9004
vn 0.9339 0.1085 -0.3408
vn -0.2729 -0.8965 0.3491
vn -0.8156 -0.4208 0.3972
vn -0.9629 -0.1175 0.2429
vn -0.3004 -0.3075 0.9029
vn -0.7662 -0.6361 0.0905
vn -0.3397 -0.2717 0.9004
vn 0.8854 -0.3340 0.3231
vn 0.2717 -0.3397 0.9004
vn -0.9714 0.1186 -0.2055
vn 0.2729 -0.8965 0.3491
vn 0.8156 -0.4208 0.3972
vn 0.9646 -0.1122 0.2388
vn 0.3004 -0.3075 0.9029
vn 0.7662 -0.6361 0.0905
vn 0.3397 -0.2717 0.9004
vn -0.8854 0.3340 -0.3231
vn 0.8995 -0.3722 0.2290
vn 0.9714 -0.1186 0.2055
vn 0.9669 -0.0748 0.2439
vn -0.3387 0.8978 -0.2817
vn -0.9004 0.2717 -0.3397
vn -0.9646 0.1122 -0.2388
vn 0.9104 0.3070 -0.2773
vn -0.8995 -0.3722 0.2290
vn -0.9339 -0.1085 0.3408
vn -0.9669 -0.0748 0.2439
vn 0.3387 0.8978 -0.2817
vn 0.9004 0.2717 -0.3397
vn 0.9629 0.1175 -0.2429
vn -0.9104 0.3070 0.2773
vn 0.8995 -0.3722 -0.2290
vn 0.9339 -0.1085 -0.3408
vn 0.9669 -0.0748 -0.2439
vn -0.3387 0.8978 0.2817
vn -0.9004 0.2717 0.3397
vn -0.9629 0.1175 0.2429
vn 0.8854 0.3340 0.3231
vn -0.8995 -0.3722 -0.2290
vn -0.9714 -0.1186 -0.2055
vn -0.9669 -0.0748 -0.2439
vn 0.3387 0.8978 0.2817
vn 0.9004 0.2717 0.3397
vn 0.9646 0.1122 0.2388
vn -0.9104 -0.3070 -0.2773
vn 0.8995 0.3722 0.2290
vn 0.9339 0.1085 0.3408
vn 0.9669 0.0748 0.2439
vn -0.3387 -0.8978 -0.2817
vn -0.9004 -0.2717 -0.3397
vn -0.9629 -0.1175 -0.2429
vn 0.8854 -0.3340 -0.3231
vn -0.8995 0.3722 0.2290
vn -0.9714 0.1186 0.2055
vn -0.9669 0.0748 0.2439
vn 0.3387 -0.8978 -0.2817
vn 0.9004 -0.2717 -0.3397
vn 0.9646 -0.1122 -0.2388
vn -0.8854 -0.3340 0.3231
vn 0.8995 0.3722 -0.2290
vn 0.9714 0.1186 -0.2055
vn 0.9669 0.0748 -0.2439
vn -0.3387 -0.8978 0.2817
vn -0.9004 -0.2717 0.3397
vn -0.9646 -0.1122 0.2388
vn 0.9104 -0.3070 0.2773
vn -0.8995 0.3722 -0.2290
vn -0.9339 0.1085 -0.3408
vn -0.9669 0.0748 -0.2439
vn 0.3387 -0.8978 0.2817
vn 0.9004 -0.2717 0.3397
vn 0.9629 -0.1175 0.2429
s off
f 6/1/1 7/2/1 4/3/1
f 13/4/2 2/5/2 6/1/2
f 2/5/3 14/6/3 23/7/3
f 4/3/4 10/8/4 20/9/4
f 1/10/5 14/11/5 2/12/5
f 4/13/6 15/14/6 10/15/6
f 6/1/7 8/16/7 13/4/7
f 3/17/8 18/18/8 5/19/8
f 18/18/3 1/10/3 5/19/3
f 17/20/9 16/21/9 18/18/9
f 4/3/10 20/9/10 21/22/10
f 21/22/11 20/9/11 12/23/11
f 8/16/12 4/3/12 21/22/12
f 1/10/13 24/24/13 14/11/13
f 16/21/3 22/25/3 1/10/3
f 7/26/8 29/27/8 15/14/8
f 11/28/8 28/29/8 7/2/8
f 19/30/14 26/31/14 16/21/14
f 23/7/15 30/32/15 28/29/15
f 28/33/16 31/34/16 29/27/16
f 23/7/3 24/35/3 25/36/3
f 37/37/17 38/38/17 41/39/17
f 33/40/2 42/41/2 37/37/2
f 50/42/3 33/40/3 37/37/3
f 35/43/18 20/9/18 10/8/18
f 36/44/19 34/45/19 33/46/19
f 15/14/20 35/47/20 10/15/20
f 39/48/21 37/37/21 42/41/21
f 34/45/8 46/49/8 45/50/8
f 32/51/3 46/49/3 36/44/3
f 45/50/22 44/52/22 47/53/22
f 35/43/23 48/54/23 20/9/23
f 48/54/24 12/23/24 20/9/24
f 39/48/25 48/54/25 35/43/25
f 51/55/26 32/51/26 43/56/26
f 49/57/3 44/52/3 32/51/3
f 29/27/8 38/58/8 15/14/8
f 55/59/8 41/39/8 38/38/8
f 53/60/27 47/53/27 44/52/27
f 56/61/28 50/42/28 55/59/28
f 31/34/29 55/62/29 29/27/29
f 51/63/3 50/42/3 52/64/3
f 62/65/30 63/66/30 67/67/30
f 58/68/31 69/69/31 62/65/31
f 78/70/3 58/68/3 62/65/3
f 60/71/32 76/72/32 66/73/32
f 61/74/33 59/75/33 58/76/33
f 71/77/34 60/78/34 66/79/34
f 64/80/35 62/65/35 69/69/35
f 59/75/36 74/81/36 73/82/36
f 57/83/3 74/81/3 61/74/3
f 73/82/37 72/84/37 75/85/37
f 60/71/38 77/86/38 76/72/38
f 77/86/39 68/87/39 76/72/39
f 64/80/40 77/86/40 60/71/40
f 24/24/13 57/83/13 70/88/13
f 22/25/3 72/84/3 57/83/3
f 80/89/36 63/90/36 71/77/36
f 79/91/36 67/67/36 63/66/36
f 26/31/14 75/85/14 72/84/14
f 30/32/15 78/70/15 79/91/15
f 31/34/16 79/92/16 80/89/16
f 24/35/3 78/70/3 25/36/3
f 86/93/41 87/94/41 84/95/41
f 91/96/31 82/97/31 86/93/31
f 82/97/3 92/98/3 98/99/3
f 84/95/42 66/73/42 76/72/42
f 81/100/43 92/101/43 82/102/43
f 84/103/44 71/77/44 66/79/44
f 86/93/45 88/104/45 91/96/45
f 83/105/36 95/106/36 85/107/36
f 95/106/3 81/100/3 85/107/3
f 94/108/46 93/109/46 95/106/46
f 84/95/47 76/72/47 97/110/47
f 97/110/48 76/72/48 68/87/48
f 88/104/49 84/95/49 97/110/49
f 81/100/26 51/55/26 92/101/26
f 93/109/3 49/57/3 81/100/3
f 87/111/36 80/89/36 71/77/36
f 90/112/36 99/113/36 87/94/36
f 96/114/27 53/60/27 93/109/27
f 98/99/28 56/61/28 99/113/28
f 99/115/29 31/34/29 80/89/29
f 98/99/3 51/63/3 52/64/3
f 104/116/50 105/117/50 107/118/50
f 101/119/51 13/4/51 104/116/51
f 114/120/52 101/119/52 104/116/52
f 102/121/53 112/122/53 106/123/53
f 103/124/54 3/17/54 101/125/54
f 109/126/55 102/127/55 106/128/55
f 8/16/56 104/116/56 13/4/56
f 3/17/8 111/129/8 17/20/8
f 100/130/52 111/129/52 103/124/52
f 17/20/57 110/131/57 19/30/57
f 102/121/58 21/22/58 112/122/58
f 21/22/59 12/23/59 112/122/59
f 8/16/60 21/22/60 102/121/60
f 115/132/61 100/130/61 108/133/61
f 113/134/52 110/131/52 100/130/52
f 119/135/8 105/136/8 109/126/8
f 118/137/8 107/118/8 105/117/8
f 117/138/62 19/30/62 110/131/62
f 120/139/63 114/120/63 118/137/63
f 121/140/64 118/141/64 119/135/64
f 115/142/52 114/120/52 116/143/52
f 126/144/65 127/145/65 124/146/65
f 42/41/51 123/147/51 126/144/51
f 123/147/52 129/148/52 133/149/52
f 124/146/66 106/123/66 112/122/66
f 122/150/67 129/151/67 123/152/67
f 124/153/68 109/126/68 106/128/68
f 126/144/69 39/48/69 42/41/69
f 34/45/8 131/154/8 125/155/8
f 131/154/52 122/150/52 125/155/52
f 45/50/70 130/156/70 131/154/70
f 124/146/71 112/122/71 48/54/71
f 48/54/72 112/122/72 12/23/72
f 39/48/73 124/146/73 48/54/73
f 122/150/74 134/157/74 129/151/74
f 130/156/52 132/158/52 122/150/52
f 127/159/8 119/135/8 109/126/8
f 128/160/8 137/161/8 127/145/8
f 47/53/75 136/162/75 130/156/75
f 133/149/76 138/163/76 137/161/76
f 137/164/77 121/140/77 119/135/77
f 133/149/52 134/165/52 135/166/52
f 143/167/78 144/168/78 141/169/78
f 69/69/79 140/170/79 143/167/79
f 140/170/52 147/171/52 152/172/52
f 141/169/80 145/173/80 151/174/80
f 139/175/81 147/176/81 140/177/81
f 141/178/82 148/179/82 145/180/82
f 143/167/83 64/80/83 69/69/83
f 59/75/36 150/181/36 142/182/36
f 150/181/52 139/175/52 142/182/52
f 73/82/84 149/183/84 150/181/84
f 141/169/85 151/174/85 77/86/85
f 77/86/86 151/174/86 68/87/86
f 64/80/87 141/169/87 77/86/87
f 139/175/61 115/132/61 147/176/61
f 149/183/52 113/134/52 139/175/52
f 144/184/36 154/185/36 148/179/36
f 146/186/36 153/187/36 144/168/36
f 75/85/62 117/138/62 149/183/62
f 152/172/63 120/139/63 153/187/63
f 153/188/64 121/140/64 154/185/64
f 152/172/52 115/142/52 116/143/52
f 159/189/88 160/190/88 161/191/88
f 156/192/79 91/96/79 159/189/79
f 165/193/52 156/192/52 159/189/52
f 157/194/89 151/174/89 145/173/89
f 158/195/90 83/105/90 156/196/90
f 148/179/91 157/197/91 145/180/91
f 88/104/92 159/189/92 91/96/92
f 83/105/36 164/198/36 94/108/36
f 155/199/52 164/198/52 158/195/52
f 94/108/93 163/200/93 96/114/93
f 157/194/94 97/110/94 151/174/94
f 97/110/95 68/87/95 151/174/95
f 88/104/96 97/110/96 157/194/96
f 134/157/74 155/199/74 162/201/74
f 132/158/52 163/200/52 155/199/52
f 154/185/36 160/202/36 148/179/36
f 166/203/36 161/191/36 160/190/36
f 136/162/75 96/114/75 163/200/75
f 138/163/76 165/193/76 166/203/76
f 121/140/77 166/204/77 154/185/77
f 134/165/52 165/193/52 135/166/52
f 6/1/97 11/28/97 7/2/97
f 13/4/2 9/205/2 2/5/2
f 23/7/3 11/28/3 6/1/3
f 6/1/3 2/5/3 23/7/3
f 2/12/98 9/206/98 3/17/98
f 3/17/99 5/19/99 2/12/99
f 5/19/100 1/10/100 2/12/100
f 4/13/101 7/26/101 15/14/101
f 6/1/102 4/3/102 8/16/102
f 3/17/8 17/20/8 18/18/8
f 18/18/3 16/21/3 1/10/3
f 17/20/103 19/30/103 16/21/103
f 1/10/13 22/25/13 24/24/13
f 16/21/3 26/31/3 22/25/3
f 7/26/8 28/33/8 29/27/8
f 11/28/8 23/7/8 28/29/8
f 19/30/14 27/207/14 26/31/14
f 23/7/15 25/36/15 30/32/15
f 28/33/16 30/208/16 31/34/16
f 23/7/3 14/6/3 24/35/3
f 37/37/104 35/43/104 38/38/104
f 33/40/2 40/209/2 42/41/2
f 37/37/3 41/39/3 50/42/3
f 50/42/3 43/210/3 33/40/3
f 34/45/105 40/211/105 33/46/105
f 33/46/106 43/56/106 32/51/106
f 32/51/107 36/44/107 33/46/107
f 15/14/108 38/58/108 35/47/108
f 39/48/109 35/43/109 37/37/109
f 34/45/8 36/44/8 46/49/8
f 32/51/3 44/52/3 46/49/3
f 45/50/110 46/49/110 44/52/110
f 51/55/26 49/57/26 32/51/26
f 49/57/3 53/60/3 44/52/3
f 29/27/8 55/62/8 38/58/8
f 55/59/8 50/42/8 41/39/8
f 53/60/27 54/212/27 47/53/27
f 56/61/28 52/64/28 50/42/28
f 31/34/29 56/213/29 55/62/29
f 51/63/3 43/210/3 50/42/3
f 62/65/111 60/71/111 63/66/111
f 58/68/31 65/214/31 69/69/31
f 62/65/3 67/67/3 78/70/3
f 78/70/3 70/215/3 58/68/3
f 59/75/112 65/216/112 58/76/112
f 58/76/113 70/88/113 57/83/113
f 57/83/114 61/74/114 58/76/114
f 71/77/115 63/90/115 60/78/115
f 64/80/116 60/71/116 62/65/116
f 59/75/36 61/74/36 74/81/36
f 57/83/3 72/84/3 74/81/3
f 73/82/117 74/81/117 72/84/117
f 24/24/13 22/25/13 57/83/13
f 22/25/3 26/31/3 72/84/3
f 80/89/36 79/92/36 63/90/36
f 79/91/36 78/70/36 67/67/36
f 26/31/14 27/207/14 75/85/14
f 30/32/15 25/36/15 78/70/15
f 31/34/16 30/208/16 79/92/16
f 24/35/3 70/215/3 78/70/3
f 86/93/118 90/112/118 87/94/118
f 91/96/31 89/217/31 82/97/31
f 98/99/3 90/112/3 86/93/3
f 86/93/3 82/97/3 98/99/3
f 82/102/119 89/218/119 83/105/119
f 83/105/120 85/107/120 82/102/120
f 85/107/121 81/100/121 82/102/121
f 84/103/122 87/111/122 71/77/122
f 86/93/123 84/95/123 88/104/123
f 83/105/36 94/108/36 95/106/36
f 95/106/3 93/109/3 81/100/3
f 94/108/124 96/114/124 93/109/124
f 81/100/26 49/57/26 51/55/26
f 93/109/3 53/60/3 49/57/3
f 87/111/36 99/115/36 80/89/36
f 90/112/36 98/99/36 99/113/36
f 96/114/27 54/212/27 53/60/27
f 98/99/28 52/64/28 56/61/28
f 99/115/29 56/213/29 31/34/29
f 98/99/3 92/98/3 51/63/3
f 104/116/125 102/121/125 105/117/125
f 101/119/51 9/205/51 13/4/51
f 104/116/52 107/118/52 114/120/52
f 114/120/52 108/219/52 101/119/52
f 3/17/126 9/206/126 101/125/126
f 101/125/127 108/133/127 100/130/127
f 100/130/128 103/124/128 101/125/128
f 109/126/129 105/136/129 102/127/129
f 8/16/130 102/121/130 104/116/130
f 3/17/8 103/124/8 111/129/8
f 100/130/52 110/131/52 111/129/52
f 17/20/131 111/129/131 110/131/131
f 115/132/61 113/134/61 100/130/61
f 113/134/52 117/138/52 110/131/52
f 119/135/8 118/141/8 105/136/8
f 118/137/8 114/120/8 107/118/8
f 117/138/62 27/207/62 19/30/62
f 120/139/63 116/143/63 114/120/63
f 121/140/64 120/220/64 118/141/64
f 115/142/52 108/219/52 114/120/52
f 126/144/132 128/160/132 127/145/132
f 42/41/51 40/209/51 123/147/51
f 133/149/52 128/160/52 126/144/52
f 126/144/52 123/147/52 133/149/52
f 123/152/133 40/211/133 34/45/133
f 34/45/134 125/155/134 123/152/134
f 125/155/135 122/150/135 123/152/135
f 124/153/136 127/159/136 109/126/136
f 126/144/137 124/146/137 39/48/137
f 34/45/8 45/50/8 131/154/8
f 131/154/52 130/156/52 122/150/52
f 45/50/138 47/53/138 130/156/138
f 122/150/74 132/158/74 134/157/74
f 130/156/52 136/162/52 132/158/52
f 127/159/8 137/164/8 119/135/8
f 128/160/8 133/149/8 137/161/8
f 47/53/75 54/212/75 136/162/75
f 133/149/76 135/166/76 138/163/76
f 137/164/77 138/221/77 121/140/77
f 133/149/52 129/148/52 134/165/52
f 143/167/139 146/186/139 144/168/139
f 69/69/79 65/214/79 140/170/79
f 152/172/52 146/186/52 143/167/52
f 143/167/52 140/170/52 152/172/52
f 140/177/140 65/216/140 59/75/140
f 59/75/141 142/182/141 140/177/141
f 142/182/142 139/175/142 140/177/142
f 141/178/143 144/184/143 148/179/143
f 143/167/144 141/169/144 64/80/144
f 59/75/36 73/82/36 150/181/36
f 150/181/52 149/183/52 139/175/52
f 73/82/145 75/85/145 149/183/145
f 139/175/61 113/134/61 115/132/61
f 149/183/52 117/138/52 113/134/52
f 144/184/36 153/188/36 154/185/36
f 146/186/36 152/172/36 153/187/36
f 75/85/62 27/207/62 117/138/62
f 152/172/63 116/143/63 120/139/63
f 153/188/64 120/220/64 121/140/64
f 152/172/52 147/171/52 115/142/52
f 159/189/146 157/194/146 160/190/146
f 156/192/79 89/217/79 91/96/79
f 159/189/52 161/191/52 165/193/52
f 165/193/52 162/222/52 156/192/52
f 83/105/147 89/218/147 156/196/147
f 156/196/148 162/201/148 155/199/148
f 155/199/149 158/195/149 156/196/149
f 148/179/150 160/202/150 157/197/150
f 88/104/151 157/194/151 159/189/151
f 83/105/36 158/195/36 164/198/36
f 155/199/52 163/200/52 164/198/52
f 94/108/152 164/198/152 163/200/152
f 134/157/74 132/158/74 155/199/74
f 132/158/52 136/162/52 163/200/52
f 154/185/36 166/204/36 160/202/36
f 166/203/36 165/193/36 161/191/36
f 136/162/75 54/212/75 96/114/75
f 138/163/76 135/166/76 165/193/76
f 121/140/77 138/221/77 166/204/77
f 134/165/52 162/222/52 165/193/52
